<svg width="126" height="127" viewBox="0 0 126 127" fill="none" xmlns="http://www.w3.org/2000/svg">
<path d="M105.241 106.63C96.9436 111.154 82.7081 112.448 63.0162 112.448C43.3243 112.448 29.0889 111.154 20.7911 106.63C15.8107 103.921 13.2897 100.228 13.2897 97.5796C13.2897 96.0715 14.1204 95.2094 15.97 95.2094H110.061C111.912 95.2094 112.741 96.0715 112.741 97.5796C112.743 100.228 110.222 103.921 105.241 106.63ZM110.061 36.4434H15.97C14.1204 36.4434 13.2897 35.5202 13.2897 33.8583C13.2897 24.0068 28.6419 6.61456 63.0162 6.61456C97.0721 6.61456 112.743 24.0068 112.743 33.8583C112.743 35.5202 111.912 36.4434 110.061 36.4434Z" fill="white"/>
<path d="M33.3326 77.0787C33.0449 76.6475 33.0141 76.37 33.0141 76.2477C33.0141 75.9092 33.2058 75.663 33.5878 75.3245C34.4817 74.5233 36.6842 72.5229 37.8967 70.7075C38.8216 69.3216 39.2052 68.0597 39.2052 67.014C39.2052 64.3363 36.6842 62.2419 33.9388 62.2419C32.1834 62.2419 30.5238 63.1966 29.4072 64.9508C27.907 67.2899 26.119 69.9989 24.9714 71.0775C24.6837 71.3551 24.5245 71.4162 24.3018 71.4162C23.9182 71.4162 23.7589 71.17 23.7589 70.7703V67.6912C23.7589 64.675 21.9076 62.2419 18.556 62.2419C15.1734 62.2419 13.3529 64.6734 13.3529 67.6912V86.6543C13.3529 89.6706 15.1718 92.1038 18.556 92.1038C21.9076 92.1038 23.7589 89.6723 23.7589 86.6543V82.2837C23.7589 81.9137 23.9182 81.6377 24.3018 81.6377C24.8121 81.6377 24.9406 82.13 25.0674 82.3761C25.8021 84.0692 27.9394 87.6703 29.9193 89.7945C31.2603 91.2102 32.9198 92.1038 34.6753 92.1038C37.6433 92.1038 40.1335 89.6096 40.1335 86.9319C40.1335 85.2702 39.3987 84.0379 37.9943 82.5611C36.2064 80.6796 34.0999 78.2168 33.3326 77.0787Z" fill="white"/>
<path d="M73.1344 60.486C78.1456 60.486 81.3053 57.4069 81.3053 52.9139C81.3053 50.0513 79.5174 48.0806 75.9431 48.0806H74.9223C73.0385 48.0806 71.5707 48.9429 71.5707 50.8822C71.5707 52.6067 73.1344 53.4375 74.316 53.4375C74.9223 53.4375 75.306 53.6226 75.306 54.0537C75.306 54.6071 74.6364 54.9771 73.8691 54.9771C71.4749 54.9771 69.8478 53.3451 69.8478 50.2974C69.8478 46.9112 72.0828 45.6806 73.8057 45.6806C75.9123 45.6806 76.2634 46.7278 77.731 46.7278C79.4231 46.7278 80.5723 45.3733 80.5723 43.9576C80.5723 42.9104 80.0929 42.111 79.3599 41.5559C78.0188 40.6011 76.1366 39.8942 73.3279 39.8942C68.3801 39.8942 63.5607 43.0342 63.5607 50.299C63.5591 57.2533 68.3784 60.486 73.1344 60.486Z" fill="white"/>
<path d="M17.0233 60.3011H21.5241C25.7697 60.3011 28.3541 57.5607 28.3541 54.1446C28.3541 51.4042 26.662 50.1423 26.28 49.835C26.1208 49.7111 25.9615 49.5889 25.9615 49.4649C25.9615 49.3113 26.0575 49.2502 26.2168 49.0651C26.8229 48.3879 27.4293 47.311 27.4293 45.74C27.4293 42.0465 24.8432 40.0759 20.8219 40.0759H17.0233C14.5023 40.0759 13.2897 41.4932 13.2897 43.4011V56.9759C13.2897 58.8854 14.5023 60.3011 17.0233 60.3011ZM18.9071 45.3717C18.9071 44.9719 19.1624 44.663 19.7053 44.663H20.1197C21.4915 44.663 21.9077 45.5864 21.9077 46.3876C21.9077 47.1259 21.4933 48.1732 20.1197 48.1732H19.7053C19.1624 48.1732 18.9071 47.8659 18.9071 47.4646V45.3717ZM18.9071 52.5754C18.9071 52.1756 19.1624 51.8667 19.7053 51.8667H20.279C21.8118 51.8667 22.2571 52.8512 22.2571 53.7448C22.2571 54.546 21.8101 55.6841 20.279 55.6841H19.7053C19.1624 55.6841 18.9071 55.3769 18.9071 54.9755V52.5754Z" fill="white"/>
<path d="M100.358 60.4547C102.402 60.4547 103.518 58.9762 103.518 57.1295V53.8671C103.518 53.4673 103.71 53.2823 104.029 53.2823C104.412 53.2823 104.539 53.497 104.602 53.8671C104.89 55.4363 105.656 57.5605 106.517 58.6392C107.603 60.0251 108.624 60.4563 109.644 60.4563C111.304 60.4563 112.741 59.1942 112.741 57.6234C112.741 56.5761 112.294 55.8063 111.72 55.0994C110.634 53.7762 109.965 52.9139 109.55 51.8369C109.454 51.5909 109.518 51.3744 109.805 51.1597C110.795 50.4213 111.944 48.7893 111.944 46.2042C111.944 42.2943 108.593 40.0775 104.539 40.0775H100.932C98.4112 40.0775 97.1987 41.4932 97.1987 43.4027V57.1327C97.1987 58.9779 98.3153 60.4547 100.358 60.4547ZM103.167 45.8953C103.167 45.4955 103.422 45.1866 103.965 45.1866H104.412C105.753 45.1866 106.168 46.11 106.168 46.9112C106.168 47.681 105.753 48.6968 104.412 48.6968H103.965C103.422 48.6968 103.167 48.3895 103.167 47.9882V45.8953Z" fill="white"/>
<path d="M47.8868 62.2403C44.3126 62.2403 42.3652 64.8254 42.3652 68.058V86.2827C42.3652 89.5154 44.3126 92.1005 47.8868 92.1005C51.461 92.1005 53.4084 89.5154 53.4084 86.2827V68.058C53.4084 64.827 51.4628 62.2403 47.8868 62.2403Z" fill="white"/>
<path d="M104.635 74.0922H103.071C100.263 74.0922 98.0926 75.3542 98.0926 78.1243C98.0926 80.6483 100.454 81.8492 102.21 81.8492C103.071 81.8492 103.678 82.0953 103.678 82.7411C103.678 83.5423 102.657 84.0643 101.571 84.0643C97.9642 84.0643 95.5065 81.6939 95.5065 77.2918C95.5065 72.3974 98.8581 70.6117 101.442 70.6117C104.602 70.6117 105.113 72.1513 107.315 72.1513C109.869 72.1513 111.592 70.1509 111.592 68.1191C111.592 66.611 110.889 65.4415 109.773 64.6403C107.826 63.2545 104.89 62.2386 100.74 62.2386C93.3041 62.2386 86.0579 66.763 86.0579 77.2918C86.0579 87.3581 93.3023 92.0674 100.453 92.0674C107.952 92.0674 112.708 87.6042 112.708 81.0778C112.71 76.9548 110.03 74.0922 104.635 74.0922Z" fill="white"/>
<path d="M92.5714 60.301C94.3594 60.301 95.7637 59.2852 95.7637 57.4384C95.7637 55.6213 94.3594 54.6055 92.5714 54.6055H89.6993C89.1564 54.6055 88.9011 54.2982 88.9011 53.8968V53.3121C88.9011 52.9123 89.1564 52.6034 89.6993 52.6034H91.9017C93.4345 52.6034 94.6471 51.7115 94.6471 50.1405C94.6471 48.5713 93.4345 47.6776 91.9017 47.6776H89.6993C89.1564 47.6776 88.9011 47.3703 88.9011 46.9689V46.4767C88.9011 46.077 89.1564 45.7681 89.6993 45.7681H92.5714C94.3594 45.7681 95.7637 44.7523 95.7637 42.9055C95.7637 41.0884 94.3594 40.0726 92.5714 40.0726H86.5394C84.0185 40.0726 82.8058 41.4882 82.8058 43.3977V56.9726C82.8058 58.8803 84.0185 60.2977 86.5394 60.2977H92.5714V60.301Z" fill="white"/>
<path d="M37.7375 60.4546C42.9081 60.4546 45.6534 57.468 45.6534 53.7134V43.3399C45.6534 41.4931 44.5367 40.0148 42.4935 40.0148C40.4504 40.0148 39.3338 41.4931 39.3338 43.3399V53.3748C39.3338 54.1132 38.8867 54.9755 37.7375 54.9755C36.5883 54.9755 36.2047 54.1132 36.2047 53.3748V43.3399C36.2047 41.4931 35.0555 40.0148 33.0124 40.0148C30.9691 40.0148 29.8525 41.4931 29.8525 43.3399V53.7134C29.8543 57.4697 32.5672 60.4546 37.7375 60.4546Z" fill="white"/>
<path d="M60.1442 60.4547C61.8037 60.4547 63.2406 59.1926 63.2406 57.6218C63.2406 56.5744 62.7936 55.8047 62.2199 55.0978C61.295 53.9282 60.4644 52.9123 60.05 51.8353C59.9541 51.5893 60.0174 51.3728 60.3051 51.1581C61.295 50.4197 62.4442 48.7877 62.4442 46.2026C62.4442 42.2926 59.0926 40.0759 55.0389 40.0759H51.4303C48.9092 40.0759 47.6967 41.4916 47.6967 43.4011V57.1311C47.6967 58.9779 48.8134 60.4563 50.8565 60.4563C52.8997 60.4563 54.0163 58.9779 54.0163 57.1311V53.8688C54.0163 53.469 54.2082 53.2841 54.5268 53.2841C54.9104 53.2841 55.0371 53.4988 55.1005 53.8688C55.3882 55.438 56.1537 57.5622 57.0151 58.6409C58.1009 60.0235 59.1217 60.4547 60.1442 60.4547ZM54.9086 48.6953H54.4616C53.9187 48.6953 53.6635 48.3879 53.6635 47.9866V45.8953C53.6635 45.4955 53.9187 45.1867 54.4616 45.1867H54.9086C56.2497 45.1867 56.6641 46.11 56.6641 46.9112C56.6641 47.6793 56.2497 48.6953 54.9086 48.6953Z" fill="white"/>
<path d="M78.4951 62.2403C75.2069 62.2403 73.4206 64.6106 73.4206 67.5972V74.2458C73.4206 74.7991 73.2287 75.0469 72.8777 75.0469C72.6226 75.0469 72.4307 74.8933 72.208 74.4622L67.7723 66.1502C66.0803 62.9786 64.3248 62.2403 62.3141 62.2403C58.9625 62.2403 57.1111 64.6718 57.1111 67.7194V86.7452C57.1111 89.7318 58.8991 92.1022 62.1857 92.1022C65.474 92.1022 67.2603 89.7318 67.2603 86.7452V80.0966C67.2603 79.5433 67.452 79.2955 67.8032 79.2955C68.0584 79.2955 68.2501 79.4491 68.4728 79.8802L72.9085 88.1922C74.6006 91.3638 76.4194 92.1022 78.3667 92.1022C81.7184 92.1022 83.5696 89.6707 83.5696 86.623V67.5972C83.5696 64.6106 81.7835 62.2403 78.4951 62.2403Z" fill="white"/>
<path d="M108.216 109.828C108.216 109 108.881 108.308 109.792 108.308C110.703 108.308 111.367 109 111.367 109.828C111.367 110.717 110.703 111.358 109.792 111.358C108.881 111.359 108.216 110.707 108.216 109.828ZM111.025 109.828C111.025 109.063 110.403 108.619 109.792 108.619C109.18 108.619 108.559 109.063 108.559 109.828C108.559 110.624 109.18 111.047 109.792 111.047C110.403 111.047 111.025 110.624 111.025 109.828ZM109.245 110.48V109.189C109.245 109.106 109.321 109.024 109.406 109.024H109.857C110.21 109.024 110.456 109.23 110.456 109.509C110.456 109.747 110.317 109.954 109.996 110.005L110.348 110.388C110.381 110.419 110.401 110.461 110.401 110.49C110.401 110.583 110.336 110.646 110.24 110.646C110.175 110.646 110.132 110.614 110.102 110.573L109.631 110.036H109.578V110.48C109.578 110.563 109.502 110.636 109.406 110.636C109.321 110.634 109.245 110.563 109.245 110.48ZM109.814 109.745C110.007 109.745 110.114 109.653 110.114 109.529C110.114 109.395 110.018 109.323 109.847 109.323H109.579V109.747H109.814V109.745Z" fill="white"/>
</svg>
