<svg width="282" height="85" viewBox="0 0 282 85" fill="none" xmlns="http://www.w3.org/2000/svg">
<g clip-path="url(#clip0_104_362)">
<path fill-rule="evenodd" clip-rule="evenodd" d="M97.9296 70.5611V75.6891C98.8663 75.7724 99.765 75.8287 100.633 75.8287C103.471 75.8287 104.906 74.8854 104.906 73.0283C104.906 71.3917 103.405 70.5611 100.833 70.5611H97.9296V70.5611ZM97.9296 62.6867V67.5941H100.702C102.737 67.5941 104.172 66.7072 104.172 65.0167C104.172 63.4634 102.77 62.6034 100.502 62.6034C99.5321 62.6034 98.6638 62.6328 97.9296 62.6867ZM93.8235 59.5555C96.0703 59.466 98.3187 59.4194 100.567 59.4159C105.876 59.4159 108.246 61.3269 108.246 64.2131C108.246 66.2907 107.144 67.7607 104.906 68.6207V68.6746C107.344 69.2014 109.013 70.7277 109.013 73.1949C109.013 77.0488 105.542 79.0162 100.335 79.0162C97.4967 79.0162 95.3247 78.9599 93.8235 78.8766V59.5555V59.5555ZM123.607 66.766L118.708 72.5922L124.202 79.0162H119.954L114.914 72.8372L119.501 66.766H123.607ZM111.544 79.0162H114.8V66.766H111.544V79.0162Z" fill="white"/>
<mask id="mask0_104_362" style="mask-type:alpha" maskUnits="userSpaceOnUse" x="126" y="66" width="14" height="18">
<path d="M126.961 66.8199H139.118V83.9163H126.961V66.8199Z" fill="white"/>
</mask>
<g mask="url(#mask0_104_362)">
<path fill-rule="evenodd" clip-rule="evenodd" d="M139.118 78.3302C139.118 80.2266 138.535 81.6304 137.34 82.5394C136.176 83.4484 134.687 83.9163 132.91 83.9163C130.895 83.9163 129.118 83.4214 127.571 82.461L129.06 80.0967C130.126 80.7914 131.387 81.1539 132.672 81.1355C134.743 81.1355 135.761 80.305 135.761 78.6414V77.0832C134.713 78.2273 133.315 78.7982 131.566 78.7982C128.857 78.7957 126.961 77.1616 126.961 73.9643V66.8199H130.315V73.342C130.315 75.1329 131.161 76.0174 132.822 76.0174C133.958 76.0174 134.948 75.5519 135.766 74.589V66.8199H139.118V78.3302Z" fill="white"/>
</g>
<path fill-rule="evenodd" clip-rule="evenodd" d="M154.58 79.0383C153.474 80.6259 151.466 81.4663 149.223 81.4663C147.039 81.4663 145.274 80.7803 143.927 79.4426C142.581 78.1024 141.922 76.3286 141.922 74.1162C141.922 72.0288 142.581 70.2843 143.897 68.8829C145.213 67.4839 146.889 66.7661 148.894 66.7661C151.289 66.7661 153.084 67.3884 154.312 68.6648L152.694 71.4995C152.267 71.0563 151.747 70.7053 151.17 70.4693C150.593 70.2333 149.971 70.1177 149.345 70.13C148.358 70.13 147.459 70.5048 146.712 71.2496C145.963 71.9675 145.603 72.9328 145.603 74.1162C145.603 75.3314 145.993 76.2967 146.742 77.044C147.52 77.7594 148.446 78.1342 149.494 78.1342C150.811 78.1342 151.975 77.5732 152.962 76.4192L154.58 79.0408V79.0383ZM166.359 79.0163V74.3342H160.522V79.0163H157.112V66.7661H160.522V71.3942H166.359V66.7661H169.769V79.0163H166.359ZM179.875 75.7406C182.85 75.7406 184.404 75.079 184.404 72.8765C184.404 70.7327 182.921 69.7184 179.984 69.7184C177.133 69.7184 175.566 70.718 175.566 72.8912C175.566 75.0374 176.032 75.7406 178.966 75.7406H179.875ZM174.377 68.5056C175.771 67.3369 177.632 66.7661 179.895 66.7661C182.159 66.7661 183.989 67.3369 185.381 68.5056C186.776 69.6473 187.49 71.1026 187.49 72.8912C187.49 74.6821 186.776 76.135 185.381 77.3037C183.989 78.4454 182.159 79.0163 179.895 79.0163C177.632 79.0163 175.771 78.4454 174.377 77.3037C172.984 76.135 172.301 74.6821 172.301 72.8936C172.301 71.1002 172.984 69.6473 174.377 68.5056V68.5056ZM192.669 74.1162C194.026 74.1162 195.085 75.2922 195.085 76.4707C195.085 77.8378 194.026 79.0163 192.669 79.0163C192.321 79.0249 191.974 78.9651 191.65 78.8405C191.326 78.7159 191.031 78.5289 190.783 78.2911C190.536 78.0532 190.341 77.7692 190.21 77.4563C190.079 77.1435 190.015 76.8082 190.021 76.4707C190.021 75.2947 191.08 74.1162 192.669 74.1162ZM122.503 24.1231C119.858 27.0509 116.625 31.9878 116.61 37.319C116.567 40.6413 117.276 45.6786 121.349 47.8787C126.424 50.6056 131.052 49.8779 135.627 47.3863C140.829 44.4707 144.9 40.0239 144.9 40.0239C144.9 40.0239 144.173 38.6764 141.695 39.5976C139.259 40.5114 136.209 42.2706 133.758 42.6675C129.366 43.3388 125.404 40.7197 125.976 35.3786C126.569 30.0253 128.986 24.5225 132.006 22.4032C133.794 21.1145 135.933 20.2937 138.064 21.1316C139.538 21.7539 140.211 22.3811 140.874 23.8806C141.7 25.7843 141.598 27.6879 140.173 29.2609C138.892 30.6843 136.875 31.6374 134.887 31.3532C130.72 30.7578 129.457 34.9989 129.457 34.9989C129.457 34.9989 130.414 36.2116 135.113 35.5893C138.153 35.1385 141.543 33.323 143.593 31.6276C153.137 23.5425 149.631 17.2998 143.682 15.6484C137.723 13.9775 127.197 18.8653 122.503 24.1256M157.593 33.372C160.803 29.256 164.382 22.2905 165.547 20.2423C166.729 18.2234 171.349 14.2152 172.296 18.907C173.212 23.5351 172.812 34.5113 172.615 36.4615C176.913 32.1985 182.376 19.1275 186.69 16.3246C190.988 13.5659 192.064 15.8052 194.424 31.3115C196.75 46.8987 192.533 47.744 188.054 49.1503C183.632 50.5493 183.24 47.3005 183.234 45.0489C183.257 43.4221 182.9 25.8994 181.612 27.9746C181.424 28.3715 175.944 37.3239 174.08 40.286C173.67 40.9916 172.764 42.2338 171.832 43.5152C168.349 48.3957 165.281 50.7722 164.81 46.737C164.473 43.5152 164.838 31.1572 164.881 30.0253C165.007 27.7908 164.471 28.886 163.77 29.915C163.471 30.3462 153.408 48.8293 147.745 49.5349C144.694 49.9465 144.196 48.7313 144.555 46.8497C144.879 45.2915 145.53 43.2212 148.801 41.1607C153.575 38.1962 155.945 35.5011 157.595 33.3696M90.6236 12.9019C88.5604 12.4977 82.0747 15.499 80.0292 19.9238C78.3837 23.393 71.1688 43.9782 67.6753 54.0651C66.7463 56.7479 66.126 58.5731 66.0172 58.9333C65.5008 60.6532 69.9816 62.0252 71.4701 61.8488C75.1256 61.4225 78.0698 59.4576 80.3887 51.9409C83.8062 41.0578 85.6163 32.0711 86.758 29.5059C87.9377 26.9407 97.5119 19.4975 101.486 22.511C106.734 26.4482 101.826 42.2706 92.8185 44.2968C87.0213 45.6443 87.2238 42.763 84.8138 43.5078C83.8518 46.4797 88.1503 49.4051 94.2817 48.7289C98.722 48.2315 108.162 44.5197 112.116 35.3002C117.483 22.7805 110.911 15.2172 103.464 14.813C96.0436 14.323 87.7757 24.2652 87.7757 24.2652C87.7757 24.2652 91.7324 13.1028 90.6236 12.9019M44.0233 21.6755C41.3753 24.5984 38.1527 29.5353 38.1324 34.8641C38.0945 38.1913 38.7906 43.2285 42.8613 45.4238C47.9421 48.158 52.5773 47.4279 57.1467 44.9289C62.349 42.0207 66.4298 37.5787 66.4298 37.5787C66.4298 37.5787 65.6931 36.2288 63.2198 37.1426C60.7871 38.0565 57.7315 39.8156 55.281 40.2125C50.8913 40.8838 46.9219 38.2697 47.4839 32.9237C48.0914 27.5728 50.4989 22.07 53.5292 19.9532C55.319 18.6644 57.4581 17.8412 59.5922 18.684C61.0605 19.3161 61.7313 19.9336 62.3895 21.4354C63.2249 23.3318 63.1262 25.233 61.6959 26.8084C60.4073 28.2294 58.3922 29.1849 56.41 28.9007C52.2356 28.3102 50.9749 32.5439 50.9749 32.5439C50.9749 32.5439 51.9292 33.7591 56.6353 33.1466C59.6757 32.686 63.0578 30.8681 65.116 29.1751C74.6598 21.09 71.1562 14.8497 65.2046 13.1984C59.2454 11.5299 48.7142 16.4153 44.0233 21.6755M226.969 35.9054C225.02 40.7221 221.617 44.7696 216.278 44.5638C213.514 44.4119 210.848 43.0178 210.666 38.718C210.562 35.7143 211.831 31.5957 213.122 28.5332C214.777 24.471 218.448 18.292 225.162 21.09C229.521 22.8712 229.321 30.3585 226.969 35.9054M236.531 22.0994C232.032 12.5932 220.878 14.7983 213.236 18.3802C213.236 18.3802 202.927 22.0994 200.517 32.811C199.079 39.137 201.791 46.4969 209.555 48.7852C211.99 49.4688 216.319 50.0886 219.569 49.1037C228.379 46.4381 232.313 44.0395 235.685 37.2602C238.857 30.922 238.703 26.7177 236.531 22.0994M276.878 46.8717C268.494 40.5384 264.59 32.6566 258.806 29.2119C265.425 23.2656 268.673 21.3325 273.777 21.5628C278.263 21.7858 280.288 17.7579 279.448 15.4818C278.197 12.0934 274.549 11.7529 267.324 15.9032C261.438 19.2843 254.877 27.8496 253.267 29.1041C254.826 20.9601 257.271 13.9187 257.271 13.9187C255.494 13.5145 254.593 13.2866 253.115 13.4826C251.345 13.6639 249.059 14.0388 247.938 16.3589C246.864 18.6277 240.703 40.3424 239.219 45.1788C237.784 50.0004 237.791 51.0295 239.027 51.5293C240.194 52.0291 244.305 53.1708 247.791 49.971C251.327 46.7443 252.535 33.8816 252.879 33.9282C252.943 33.9282 253.021 33.7493 253.107 33.5117C253.816 33.911 255.487 35.3002 257.099 38.5171C257.654 39.6441 258.066 40.3473 258.99 41.9717C261.195 45.8501 262.567 48.7705 269.352 52.7347C274.726 55.8413 279.724 54.3468 280.903 52.3182C281.84 50.7698 280.113 49.2924 276.878 46.8693" fill="white"/>
<mask id="mask1_104_362" style="mask-type:alpha" maskUnits="userSpaceOnUse" x="0" y="0" width="53" height="50">
<path d="M0.157013 0.916321H52.8279V49.3536H0.157013V0.916321Z" fill="white"/>
</mask>
<g mask="url(#mask1_104_362)">
<path fill-rule="evenodd" clip-rule="evenodd" d="M51.7925 2.28103C51.0761 1.28876 51.8887 0.450847 44.7979 1.21281C37.7223 1.98457 10.7945 5.53713 8.40218 5.86788C5.53143 6.25009 2.62017 7.75197 1.11391 9.8786C-0.384751 11.9832 0.324077 12.9289 0.324077 12.9289C0.324077 12.9289 1.03797 13.7399 9.14391 12.9485C17.1562 12.1963 22.6268 12.0763 22.6268 12.0763L23.6977 12.0297C19.5713 23.2901 12.2678 44.581 11.8704 45.9138C11.8433 46.0072 11.828 46.1035 11.8248 46.2004L11.7564 46.4209C11.2501 48.1384 15.6373 49.5104 17.0929 49.3365C17.2014 49.3262 17.3095 49.3123 17.4169 49.2948C18.2598 49.2424 19.0786 49.0017 19.8092 48.5917C22.1711 47.4696 24.1635 44.9485 25.8267 39.453C25.9381 39.0855 26.052 38.7205 26.1558 38.3628H26.1305C28.8392 29.4985 31.7606 17.0621 33.3149 11.5226C36.7781 11.3437 41.3145 11.1796 44.0992 11.3266C49.1395 11.5838 50.8609 10.3809 52.1748 8.31302C53.4785 6.28439 52.5545 3.26594 51.7925 2.28103" fill="white"/>
</g>
</g>
<defs>
<clipPath id="clip0_104_362">
<rect width="281.163" height="83.6009" fill="white" transform="translate(0.157013 0.916321)"/>
</clipPath>
</defs>
</svg>
