<svg width="127" height="97" viewBox="0 0 127 97" fill="none" xmlns="http://www.w3.org/2000/svg">
<g clip-path="url(#clip0_104_373)">
<path d="M23.4081 97C36.3361 97 46.8163 86.834 46.8163 74.2937C46.8163 61.7534 36.3361 51.5875 23.4081 51.5875C10.4802 51.5875 0 61.7534 0 74.2937C0 86.834 10.4802 97 23.4081 97Z" fill="white"/>
<path d="M45.7887 0.900518C45.6619 0.688207 45.4919 0.50318 45.289 0.35673C45.086 0.21028 44.8545 0.105481 44.6084 0.0487284C44.3624 -0.00802385 44.1069 -0.0155381 43.8578 0.0266442C43.6086 0.0688266 43.3709 0.159821 43.1592 0.294072C39.0274 2.88177 35.8493 6.67511 34.0827 11.1274C33.9924 11.3584 33.907 11.5884 33.8264 11.8174C32.8247 14.7453 32.4796 17.8471 32.8141 20.9149C33.1487 23.9828 34.1552 26.9458 35.7662 29.6057C48.8439 51.5694 61.9216 73.5332 74.9993 95.497C75.122 95.7028 75.2855 95.883 75.4802 96.0274C75.6749 96.1717 75.8971 96.2774 76.134 96.3383C76.371 96.3991 76.618 96.414 76.8608 96.382C77.1037 96.3501 77.3377 96.2719 77.5493 96.152C80.4611 94.5346 82.934 92.2678 84.7634 89.5393C87.5912 85.2653 88.177 80.6965 87.922 76.8674C87.631 72.8876 86.3981 69.0265 84.3191 65.5839C71.4756 44.0228 58.6321 22.4616 45.7887 0.900518Z" fill="white"/>
<path d="M84.8128 0.900518C84.686 0.688207 84.516 0.50318 84.3131 0.35673C84.1102 0.21028 83.8786 0.105481 83.6325 0.0487284C83.3865 -0.00802385 83.1311 -0.0155381 82.8819 0.0266442C82.6327 0.0688266 82.395 0.159821 82.1833 0.294072C78.0515 2.88177 74.8734 6.67511 73.1069 11.1274C73.0165 11.3584 72.9311 11.5884 72.8505 11.8174C71.8488 14.7453 71.5037 17.8471 71.8382 20.9149C72.1728 23.9828 73.1793 26.9458 74.7903 29.6057C87.868 51.5694 100.946 73.5332 114.023 95.497C114.146 95.7028 114.31 95.883 114.504 96.0274C114.699 96.1717 114.921 96.2774 115.158 96.3383C115.395 96.3991 115.642 96.414 115.885 96.382C116.128 96.3501 116.362 96.2719 116.573 96.152C119.485 94.5346 121.958 92.2678 123.788 89.5393C126.615 85.2653 127.201 80.6965 126.946 76.8674C126.655 72.8876 125.422 69.0265 123.343 65.5839C110.5 44.0228 97.6562 22.4616 84.8128 0.900518Z" fill="white"/>
</g>
<defs>
<clipPath id="clip0_104_373">
<rect width="127" height="97" fill="white"/>
</clipPath>
</defs>
</svg>
