<svg width="60" height="60" viewBox="0 0 60 60" fill="none" xmlns="http://www.w3.org/2000/svg">
<path d="M15 18C15 17.4477 15.4477 17 16 17H44C44.5523 17 45 17.4477 45 18C45 18.5523 44.5523 19 44 19H16C15.4477 19 15 18.5523 15 18Z" fill="white"/>
<path d="M15 30C15 29.4477 15.4477 29 16 29H44C44.5523 29 45 29.4477 45 30C45 30.5523 44.5523 31 44 31H16C15.4477 31 15 30.5523 15 30Z" fill="white"/>
<path d="M16 41C15.4477 41 15 41.4477 15 42C15 42.5523 15.4477 43 16 43H44C44.5523 43 45 42.5523 45 42C45 41.4477 44.5523 41 44 41H16Z" fill="white"/>
</svg>
