<svg width="36" height="42" viewBox="0 0 36 42" fill="none" xmlns="http://www.w3.org/2000/svg">
<path fill-rule="evenodd" clip-rule="evenodd" d="M19.0981 34.1927C20.9598 31.1123 20.0063 25.4509 16.5041 20.3659C12.9615 15.2223 7.95799 12.3337 4.43543 13.1041C4.35885 13.5948 4.36026 14.1299 4.43133 14.7009C4.56261 15.7554 4.92719 16.8929 5.4256 18.0162C6.42417 20.2668 7.91753 22.3667 8.94731 23.4819C9.65933 24.2531 10.0326 24.6801 10.2992 24.9869L10.339 25.0326L10.339 25.0326C10.5789 25.3088 10.724 25.4758 10.9801 25.7357C11.4751 26.2381 12.3665 27.0694 14.9721 29.4994L14.9722 29.4995L16.052 30.5066C17.3267 31.6956 18.3283 32.943 19.0981 34.1927ZM3.18596 13.5692C3.04851 13.6449 2.91469 13.7282 2.78475 13.819C-0.648611 16.2196 -0.0728118 23.0429 4.07083 29.0593C8.21447 35.0757 14.3568 38.0068 17.7902 35.6062C17.9712 35.4797 18.1411 35.3408 18.2999 35.1904C17.5619 33.9108 16.5605 32.6177 15.2374 31.3836L14.1349 30.3552L14.1347 30.3551L14.1343 30.3547C11.5567 27.9509 10.6432 27.0989 10.129 26.5771C9.84591 26.2898 9.67901 26.0977 9.44 25.8226L9.39685 25.7729C9.1363 25.4732 8.77126 25.0554 8.06917 24.295C6.9537 23.0869 5.38526 20.8765 4.33046 18.4992C3.80219 17.3086 3.39221 16.0528 3.24165 14.8433C3.18838 14.4155 3.16704 13.9885 3.18596 13.5692Z" fill="#2B170D"/>
<path fill-rule="evenodd" clip-rule="evenodd" d="M9.76704 33.6895C11.815 36.8009 17.6934 37.9379 23.8876 36.1936C29.9571 34.4844 34.3339 30.5707 34.6364 26.9078C34.1444 26.6003 33.5537 26.3782 32.8829 26.2332C31.8422 26.0081 30.6473 25.9774 29.4225 26.0787C26.9688 26.2815 24.4971 27.0046 23.1073 27.6137C22.1469 28.0346 21.6219 28.2477 21.2452 28.3994L21.189 28.422L21.189 28.422L21.1889 28.422C20.8499 28.5585 20.6447 28.6411 20.3155 28.7983C19.6795 29.1022 18.6038 29.6738 15.4597 31.3441L14.1564 32.0365C12.6487 32.8373 11.1732 33.3702 9.76704 33.6895ZM34.5446 25.5062C34.5269 25.4268 34.5071 25.3476 34.485 25.2687C33.3487 21.2033 26.7618 19.5031 19.7727 21.4713C12.7836 23.4395 8.03896 28.3307 9.17525 32.3961C9.19192 32.4558 9.20977 32.5149 9.22878 32.5736C10.6122 32.2862 12.0815 31.7745 13.5943 30.9709L14.9246 30.2643C18.0357 28.6113 19.138 28.0256 19.7984 27.7101C20.1619 27.5364 20.3976 27.4416 20.7354 27.3057L20.7963 27.2811C21.1645 27.1329 21.6782 26.9245 22.6254 26.5094C24.1294 25.8501 26.7286 25.0927 29.3188 24.8787C30.616 24.7715 31.9363 24.7982 33.1285 25.056C33.6206 25.1624 34.0975 25.3097 34.5447 25.5069C34.5446 25.5067 34.5446 25.5065 34.5446 25.5062Z" fill="#BC6519"/>
</svg>
